<?xml version="1.0" encoding="UTF-8" standalone="no"?>
<svg xmlns:dc="http://purl.org/dc/elements/1.1/" xmlns:cc="http://creativecommons.org/ns#" xmlns:rdf="http://www.w3.org/1999/02/22-rdf-syntax-ns#" xmlns:svg="http://www.w3.org/2000/svg" xmlns="http://www.w3.org/2000/svg" xmlns:sodipodi="http://sodipodi.sourceforge.net/DTD/sodipodi-0.dtd" xmlns:inkscape="http://www.inkscape.org/namespaces/inkscape" version="1.2" viewBox="0 0 120 120" width="120" height="120" id="autofollow" inkscape:version="0.91 r13725" sodipodi:docname="autofollow.svg">
	<path style="fill:#ee9900;stroke:none;fill-opacity:0.5" d="M 60 10.449219 A 50.608057 49.551278 0 0 0 9.3925781 60 A 50.608057 49.551278 0 0 0 60 109.55078 A 50.608057 49.551278 0 0 0 110.60742 60 A 50.608057 49.551278 0 0 0 60 10.449219 z M 40.103516 33.828125 C 41.692641 33.828125 43.282141 34.433984 44.494141 35.646484 L 60.054688 51.207031 L 75.615234 35.646484 C 78.038234 33.221484 81.968531 33.221484 84.394531 35.646484 C 86.820531 38.071484 86.820531 42.003734 84.394531 44.427734 L 68.832031 59.988281 L 84.394531 75.548828 C 86.820531 77.972828 86.820531 81.902125 84.394531 84.328125 C 81.969531 86.755125 78.040234 86.755125 75.615234 84.328125 L 60.054688 68.769531 L 44.494141 84.328125 C 42.068141 86.755125 38.137891 86.754078 35.712891 84.330078 C 33.287891 81.905078 33.287891 77.973828 35.712891 75.548828 L 51.273438 59.988281 L 35.712891 44.427734 C 33.287891 42.002734 33.287891 38.071484 35.712891 35.646484 C 36.925391 34.433984 38.514391 33.828125 40.103516 33.828125 z " />
</svg>
