<?xml version="1.0" encoding="UTF-8" standalone="no"?>
<svg xmlns:dc="http://purl.org/dc/elements/1.1/" xmlns:cc="http://creativecommons.org/ns#" xmlns:rdf="http://www.w3.org/1999/02/22-rdf-syntax-ns#" xmlns:svg="http://www.w3.org/2000/svg" xmlns="http://www.w3.org/2000/svg" xmlns:sodipodi="http://sodipodi.sourceforge.net/DTD/sodipodi-0.dtd" xmlns:inkscape="http://www.inkscape.org/namespaces/inkscape" version="1.2" viewBox="0 0 120 120" width="120" height="120" id="autofollow" inkscape:version="0.91 r13725" sodipodi:docname="autofollow.svg">
	<path style="fill:#ee9900;stroke:none;fill-opacity:0.5" transform="matrix(0.0222569,0,0,0.0222569,-92.448654,-50.405366)" d="m 7559,6141 c -157.6667,0 -315.3333,0 -473,0 0,157.6667 0,315.3333 0,473 -157.3333,0 -314.6667,0 -472,0 0,-157.6667 0,-315.3333 0,-473 -157.6667,0 -315.3333,0 -473,0 236.3333,-236 472.6667,-472 709,-708 236.3333,236 472.6667,472 709,708 z m 472,-1890 c 0,157.6667 0,315.3333 0,473 157.3333,0 314.6667,0 472,0 0,157.3333 0,314.6667 0,472 -157.3333,0 -314.6667,0 -472,0 0,157.6667 0,315.3333 0,473 -236.3333,-236.3333 -472.6667,-472.6667 -709,-709 236.3333,-236.3333 472.6667,-472.6667 709,-709 z M 6141,3779 c 157.6667,0 315.3333,0 473,0 0,-157.3333 0,-314.6667 0,-472 157.3333,0 314.6667,0 472,0 0,157.3333 0,314.6667 0,472 157.6667,0 315.3333,0 473,0 -236.3333,236.3333 -472.6667,472.6667 -709,709 -236.3333,-236.3333 -472.6667,-472.6667 -709,-709 z m -472,1890 c 0,-157.6667 0,-315.3333 0,-473 -157.6667,0 -315.3333,0 -473,0 0,-157.3333 0,-314.6667 0,-472 157.6667,0 315.3333,0 473,0 0,-157.6667 0,-315.3333 0,-473 236,236.3333 472,472.6667 708,709 -236,236.3333 -472,472.6667 -708,709 z M 6849.5008,2734.1896 c -1015.1592,-20.0384 -1993.8317,724.5497 -2216.499,1720.6364 -204.9768,840.5526 141.5116,1779.4418 845.1718,2283.7885 772.7905,579.2623 1913.6542,601.004 2697.872,31.5458 670.5226,-466.497 1055.8235,-1316.9138 925.7748,-2128.4309 -124.1762,-869.5274 -807.7319,-1620.4248 -1659.7111,-1831.0975 -193.1368,-50.886 -392.8726,-76.7509 -592.6085,-76.4423 z" />
</svg>
