<?xml version="1.0" encoding="UTF-8" standalone="no"?>
<svg xmlns:svg="http://www.w3.org/2000/svg" xmlns="http://www.w3.org/2000/svg" viewBox="0 0 80 80" height="80" width="80" y="0" x="0" version="1.1">
	<g transform="matrix(0.09765625,0,0,0.095048,15.295871,11)">
		<path d="m 235.473,374.613 c 5.534,5.529 13.032,8.639 20.854,8.639 7.818,0 15.316,-3.093 20.845,-8.639 L 396.075,255.708 c 11.518,-11.51 11.518,-30.181 0,-41.693 -11.507,-11.519 -30.189,-11.519 -41.696,0 l -68.568,68.568 0,-253.096 C 285.81,13.197 272.611,0 256.327,0 240.04,0 226.841,13.197 226.841,29.487 l 0,253.09 -68.551,-68.557 c -11.519,-11.519 -30.195,-11.513 -41.702,-0.006 -11.507,11.519 -11.507,30.189 -0.006,41.699 l 118.891,118.9 z m 247.369,-66.511 c -16.287,0 -29.486,13.194 -29.486,29.486 l 0,129.488 -394.054,0 0,-129.488 c 0,-16.292 -13.188,-29.486 -29.486,-29.486 -16.287,0 -29.487,13.194 -29.487,29.486 l 0,158.975 c 0,16.287 13.2,29.487 29.487,29.487 l 453.026,0 c 16.287,0 29.487,-13.2 29.487,-29.487 l 0,-158.975 c 0,-16.292 -13.2,-29.486 -29.487,-29.486 z m 131.88703,-2.99299 a 358.4,368.23499 0 0 1 -358.40002,368.23497 358.4,368.23499 0 0 1 -358.4,-368.23497 358.4,368.23499 0 0 1 358.4,-368.235005 358.4,368.23499 0 0 1 358.40002,368.235005 z" style="fill:#ee9900;fill-opacity:0.5" />
	</g>
</svg>
