<?xml version="1.0" encoding="UTF-8" standalone="no"?>
<svg xmlns:dc="http://purl.org/dc/elements/1.1/" xmlns:cc="http://creativecommons.org/ns#" xmlns:rdf="http://www.w3.org/1999/02/22-rdf-syntax-ns#" xmlns:svg="http://www.w3.org/2000/svg" xmlns="http://www.w3.org/2000/svg" version="1.2" viewBox="0 0 80 80" width="80" height="80" >
	<!-- copyright M. Dietrich <mdt@de.emdete.org> -->
	<path style="fill:#ee9900;fill-opacity:0.5;stroke:none" d="M 60,10.449219 C 37.405704,10.003226 15.623488,26.575449 10.667604,48.745251 6.1054556,67.453346 13.817213,88.350109 29.478508,99.575303 46.678429,112.46789 72.070518,112.95179 89.524775,100.27741 104.44853,89.894638 113.02413,70.966996 110.12965,52.905141 107.36588,33.552157 92.152044,16.839508 73.189628,12.150587 68.891002,11.018023 64.445502,10.44235 60,10.449219 Z m -7.428356,79.279859 c -2.481359,-2.481359 -4.962717,-4.962717 -7.444076,-7.444077 -2.48136,2.48136 -4.962718,4.962718 -7.444077,7.444077 -2.476112,-2.476112 -4.952226,-4.952226 -7.428338,-7.428338 2.48136,-2.481359 4.962718,-4.962717 7.444077,-7.444076 -2.481359,-2.48136 -4.962717,-4.962717 -7.444077,-7.444077 7.433585,0.0052 14.867169,0.01049 22.300753,0.01574 0.0052,7.433584 0.01049,14.867169 0.01574,22.300753 z M 30.255153,52.55591 c 2.48136,-2.481359 4.962718,-4.962717 7.444077,-7.444076 -2.476112,-2.476112 -4.952226,-4.952226 -7.428338,-7.428339 2.476111,-2.476112 4.952225,-4.952226 7.428337,-7.428337 2.476113,2.476112 4.952227,4.952226 7.428339,7.428338 2.481359,-2.481359 4.962717,-4.962717 7.444076,-7.444076 0,7.438829 10e-7,14.877661 0,22.31649 -7.438829,1e-6 -14.877661,0 -22.316491,0 z M 67.428321,30.23942 c 2.481359,2.481359 4.962717,4.962717 7.444077,7.444076 2.476112,-2.476112 4.952226,-4.952226 7.428338,-7.428338 2.476112,2.476111 4.952226,4.952225 7.428338,7.428337 -2.476113,2.476113 -4.952227,4.952227 -7.428339,7.428339 2.48136,2.481359 4.962718,4.962717 7.444077,7.444076 -7.43883,0 -14.877662,1e-6 -22.316491,0 -10e-7,-7.438829 0,-14.877661 0,-22.31649 z m 22.316491,37.173167 c -2.481359,2.48136 -4.962717,4.962717 -7.444077,7.444077 2.48136,2.481359 4.962718,4.962717 7.444077,7.444076 -2.476112,2.476112 -4.952226,4.952226 -7.428338,7.428338 -2.481359,-2.481359 -4.962717,-4.962717 -7.444076,-7.444077 -2.48136,2.48136 -4.962718,4.962718 -7.444077,7.444077 0.0052,-7.433584 0.01049,-14.867169 0.01574,-22.300753 7.433584,-0.0052 14.867169,-0.01049 22.300753,-0.01574 z" transform="matrix(0.69086929,0,0,0.70650908,-1.4710896,-2.376257)" />
</svg>
