<?xml version="1.0" encoding="UTF-8" standalone="no"?>
<svg xmlns:svg="http://www.w3.org/2000/svg" xmlns="http://www.w3.org/2000/svg" version="1.1" x="0" y="0" width="80" height="80" viewBox="0 0 80 80" >
	<path d="m 300.6,442.1 c 16.2,-16.8 29.8,-42.3 39.6,-73.7 18.3,5.5 35.7,12.8 52.3,21.6 -24.8,25.2 -56.5,43.6 -91.9,52.1 z M 119.6,390 c 16.4,-8.8 33.8,-16 51.8,-21.5 9.7,31.2 23.3,56.6 39.4,73.4 -35.2,-8.5 -66.6,-26.8 -91.2,-51.9 z M 210.8,70.1 c -16.1,16.7 -29.7,42.2 -39.3,73.3 -18.1,-5.5 -35.4,-12.7 -51.8,-21.5 24.5,-25 55.9,-43.3 91.1,-51.8 z m 181.6,51.8 c -16.6,8.8 -34,16.1 -52.3,21.6 -9.7,-31.3 -23.4,-56.8 -39.5,-73.6 35.4,8.5 67,26.9 91.8,52 z m -36.5,125.8 c -0.6,-31.7 -4.6,-61.6 -11.3,-88.1 20.8,-6.3 40.6,-14.7 59.2,-24.9 25.5,31 41.5,70.2 43.3,113.1 l -91.2,0 z m 0,16.6 91.2,0 c -1.8,42.8 -17.8,81.9 -43.3,113 -18.7,-10.3 -38.5,-18.7 -59.3,-25 6.8,-26.5 10.8,-56.3 11.4,-88 z m -91.6,75.1 0,-75.1 74.9,0 c -0.6,30.9 -4.5,59.2 -10.7,83.7 -20.7,-5 -42.1,-8 -64.2,-8.6 z m 0,106.6 0,-90 c 20.5,0.6 40.4,3.3 59.7,7.9 -14.5,46 -37.2,75.9 -59.7,82.1 z m -16.6,-89.9 0,90.2 c -22.6,-5.9 -45.5,-35.9 -60.1,-82.1 19.3,-4.8 39.4,-7.5 60.1,-8.1 z m -75.4,-91.8 75.4,0 0,75.1 c -22.2,0.6 -43.9,3.6 -64.7,8.7 -6.2,-24.5 -10.1,-52.8 -10.7,-83.8 z m -16.8,0 c 0.6,31.7 4.6,61.7 11.4,88.2 -20.6,6.3 -40.2,14.6 -58.8,24.8 -25.5,-31 -41.4,-70.2 -43.3,-113 l 90.7,0 z m 0,-16.6 -90.6,0 c 1.8,-42.8 17.8,-82 43.3,-113 18.5,10.2 38.2,18.6 58.8,24.8 -6.8,26.5 -10.8,56.4 -11.5,88.2 z m 92.2,-75.2 0,75.2 -75.4,0 c 0.6,-31 4.5,-59.3 10.7,-83.8 20.8,5 42.5,8 64.7,8.6 z m 0,-106.7 0,90.1 c -20.7,-0.6 -40.8,-3.3 -60.1,-8 14.6,-46.2 37.5,-76.3 60.1,-82.1 z m 16.6,90 0,-89.8 c 22.4,6.2 45.2,36.1 59.6,82 -19.2,4.6 -39.1,7.2 -59.6,7.8 z m 0,16.7 c 22.1,-0.6 43.5,-3.5 64.2,-8.5 6.2,24.5 10.1,52.8 10.7,83.8 l -74.9,0 0,-75.3 z" style="fill:#ffffff;fill-opacity:1" transform="matrix(0.18310228,0,0,0.18396846,-6.8650277,-7.1051271)"/>
</svg>
