<?xml version="1.0" encoding="UTF-8" standalone="no"?>
<!-- Created with Inkscape (http://www.inkscape.org/) -->

<svg xmlns:dc="http://purl.org/dc/elements/1.1/" xmlns:cc="http://creativecommons.org/ns#" xmlns:rdf="http://www.w3.org/1999/02/22-rdf-syntax-ns#" xmlns:svg="http://www.w3.org/2000/svg" xmlns="http://www.w3.org/2000/svg" xmlns:sodipodi="http://sodipodi.sourceforge.net/DTD/sodipodi-0.dtd" xmlns:inkscape="http://www.inkscape.org/namespaces/inkscape" id="svg2" version="1.1" inkscape:version="0.48.5 r10040" width="100.40639" height="100.40639" sodipodi:docname="ic_launcher.svg">
        <metadata id="metadata8">
                <rdf:RDF>
                        <cc:Work rdf:about="">
                                <dc:format>image/svg+xml</dc:format>
                                <dc:type rdf:resource="http://purl.org/dc/dcmitype/StillImage" />
                                <dc:title />
                        </cc:Work>
                </rdf:RDF>
        </metadata>
        <defs id="defs6" />
        <sodipodi:namedview pagecolor="#ffffff" bordercolor="#666666" borderopacity="1" objecttolerance="10" gridtolerance="10" guidetolerance="10" inkscape:pageopacity="0" inkscape:pageshadow="2" inkscape:window-width="1598" inkscape:window-height="879" id="namedview4" showgrid="false" inkscape:zoom="6.9915865" inkscape:cx="50.203198" inkscape:cy="50.20319" inkscape:window-x="0" inkscape:window-y="19" inkscape:window-maximized="0" inkscape:current-layer="svg2" fit-margin-top="0" fit-margin-left="0" fit-margin-right="0" fit-margin-bottom="0" />
        <path sodipodi:type="arc" style="fill:#d3cbae;fill-opacity:1;fill-rule:evenodd;stroke:none" id="path3645" sodipodi:cx="97.94545" sodipodi:cy="78.282326" sodipodi:rx="50.203197" sodipodi:ry="50.203197" d="m 148.14865,78.282326 a 50.203197,50.203197 0 1 1 -100.406398,0 50.203197,50.203197 0 1 1 100.406398,0 z" transform="translate(-47.742252,-28.079128)" />
        <path id="path3210" style="fill:#000000" d="m 124.12212,472.64724 c 0,-2.66667 0.33333,-3 3,-3 2.66666,0 3,0.33333 3,3 0,2.35477 0.43957,3 2.04381,3 1.89749,0 2.02277,-0.51903 1.75,-7.25 -0.22886,-5.6472 -0.62543,-7.25 -1.79381,-7.25 -0.89299,0 -1.62805,1.11285 -1.81643,2.75 -0.26314,2.287 -0.79914,2.75 -3.18357,2.75 -2.38443,0 -2.92043,-0.463 -3.18358,-2.75 -0.18838,-1.63715 -0.92343,-2.75 -1.81642,-2.75 -1.16839,0 -1.56496,1.6028 -1.79381,7.25 -0.27278,6.73097 -0.1475,7.25 1.75,7.25 1.60423,0 2.04381,-0.64523 2.04381,-3 z m -6,-2.5 c 0,-7.41271 -0.22386,-8.50532 -1.75,-8.54163 -1.26695,-0.0301 -0.64588,-1.02656 2.25,-3.60985 8.01837,-7.15285 7.69354,-7.10341 14.44891,-2.19916 6.11664,4.44055 7.21352,5.85064 4.55109,5.85064 -1.21569,0 -1.5,1.61111 -1.5,8.5 l 0,8.5 -9,0 -9,0 0,-8.5 z" inkscape:connector-curvature="0" transform="translate(-61.271461,-390.41839)" />
        <path id="path3178" style="fill:#000000" d="m 96.122116,396.88242 c 0,-1.06323 2.148331,-3.23518 3.2,-3.23518 1.552154,0 0.774944,1.94304 -1.2,3 -1.1,0.5887 -2,0.69453 -2,0.23518 z m 6.157894,1.76482 c 0,-1.375 0.22697,-1.9375 0.50439,-1.25 0.27741,0.6875 0.27741,1.8125 0,2.5 -0.27742,0.6875 -0.50439,0.125 -0.50439,-1.25 z m -11.711674,-3.27955 c -0.670021,-1.74605 -3.44622,-3.16426 -3.44622,-1.76049 0,1.11703 3.09075,4.28262 3.642586,3.73079 0.22247,-0.22247 0.134105,-1.10911 -0.196366,-1.9703 z m 3.55378,3.77955 c 0,-0.825 -0.45,-1.5 -1,-1.5 -0.55,0 -1,0.675 -1,1.5 0,0.825 0.45,1.5 1,1.5 0.55,0 1,-0.675 1,-1.5 z m -0.5,4.5 c -0.339919,-0.55 -1.293034,-1 -2.118034,-1 -0.825,0 -1.221885,0.45 -0.881966,1 0.339919,0.55 1.293034,1 2.118034,1 0.825,0 1.221885,-0.45 0.881966,-1 z m -5.74929,2.25 c -3.500815,-3.66965 -4.75071,-7.28911 -4.75071,-13.75712 l 0,-5.37692 4.25,2.42997 c 5.134589,2.93575 7.193816,3.03186 12.038558,0.56187 2.041296,-1.04071 3.711446,-1.54198 3.711446,-1.11394 0,0.85813 -6.177912,4.00614 -7.86199,4.00614 -1.359258,0 -1.046269,10.23189 0.343665,11.23469 0.644189,0.46476 0.55907,0.74031 -0.231679,0.75 -0.6875,0.008 -1.25,0.69031 -1.25,1.51531 0,2.32536 1.55197,1.79418 5.087339,-1.74119 2.277855,-2.27785 2.892845,-2.59031 2.069185,-1.05128 -3.040508,5.68124 -9.282164,6.865 -13.405814,2.54247 z" inkscape:connector-curvature="0" transform="translate(-56.795531,-318.69779)" />
        <path style="fill:#000000" d="m 91.437488,274.57225 c -4.785424,-1.77911 -5.46544,-8.98969 -1.037784,-11.00418 1.971625,-0.89705 2.199054,-1.67946 2.015422,-6.93356 -0.113844,-3.25732 0.1465,-6.14087 0.578542,-6.40788 1.00792,-0.62293 7.128452,4.93331 7.128452,6.47123 0,0.70907 -0.683368,0.88887 -1.750004,0.46043 -0.9625,-0.3866 -2.3125,-0.93289 -3,-1.21397 -0.858925,-0.35117 -1.25,0.58144 -1.25,2.98092 0,2.6213 0.623346,3.90041 2.5,5.13004 1.844277,1.20842 2.5,2.51792 2.5,4.99257 0,4.62668 -3.442551,7.1015 -7.684628,5.5244 z" id="path3156" inkscape:connector-curvature="0" transform="translate(-45.465881,-234.93478)" />
        <path id="path3072" style="fill:#000000" d="m 128.64957,55.397236 c 0.38679,-2.3375 0.9029,-4.5875 1.14692,-5 0.66921,-1.131292 3.32563,-0.899778 3.32563,0.289838 0,1.395029 -3.89076,8.960162 -4.60823,8.960162 -0.31216,0 -0.25111,-1.9125 0.13568,-4.25 z m -6.26494,-0.146577 c -1.17482,-2.418117 -1.86449,-4.668117 -1.5326,-5 1.53957,-1.539569 3.10656,-0.288657 3.71743,2.967591 0.36846,1.964057 0.91669,4.214057 1.21828,5 0.3016,0.785942 0.13988,1.428986 -0.35937,1.428986 -0.49925,0 -1.86893,-1.97846 -3.04374,-4.396577 z m 12.71049,2.346938 c 3.48864,-2.981726 5.07529,-3.305489 5.78371,-1.180203 0.36626,1.09876 -5.79379,4.27334 -8.12884,4.189201 -0.62033,-0.02235 0.43498,-1.376401 2.34513,-3.008998 z m -18.74274,2.294909 c -3.08691,-1.535855 -3.79015,-3.225309 -1.64077,-3.941768 0.53047,-0.176825 2.52735,1.014262 4.4375,2.646859 3.82077,3.26559 2.4447,3.902722 -2.79673,1.294909 z m 19.76974,6.87973 -4.5,-1.625 4.38586,-0.314136 c 4.475,-0.320521 7.33241,1.060462 5.56414,2.689136 -0.55029,0.506842 -2.84339,0.191277 -5.45,-0.75 z m -23.6719,0.28765 c -0.85301,-2.222922 -0.0404,-2.562666 5.31441,-2.221831 l 4.85749,0.309181 -4.79836,1.705778 c -4.21375,1.497956 -4.86843,1.52316 -5.37354,0.206872 z m 11.6719,4.71235 c 0,-1.58125 0.28125,-4.28125 0.625,-6 0.84304,-4.215218 3.98967,-4.297237 4.79554,-0.125 0.3187,1.65 0.84021,4.35 1.15891,6 0.55676,2.882512 0.43928,3 -3,3 -3.27592,0 -3.57945,-0.243797 -3.57945,-2.875 z" inkscape:connector-curvature="0" transform="translate(-55.117221,-18.580903)" />
        <path id="path3034" style="fill:#000000" d="M 102.65876,10.718105 C 101.82567,9.1070821 100.23912,7.501758 99.133083,7.150717 97.119015,6.5114765 96.308907,4.6472361 98.045193,4.6472361 c 1.466356,0 7.076927,6.0069659 7.076927,7.5769229 0,2.194777 -0.80367,1.70343 -2.46336,-1.506054 z M 85.122116,12.89413 c 0,-1.32685 5.089536,-5.4906914 5.819329,-4.7608982 0.282702,0.2827023 0.326504,0.6265043 0.09734,0.7640043 -0.229167,0.1375 -1.654167,1.3409409 -3.166667,2.6743139 -1.5125,1.333373 -2.75,1.928534 -2.75,1.32258 z m -2.996262,-0.908 c -0.0035,-2.0476309 5.096006,-7.3388939 7.072987,-7.3388939 1.76147,0 0.912532,1.8686344 -1.145722,2.5218987 -1.137948,0.3611707 -2.936266,2.0789953 -3.996262,3.8173872 -1.668197,2.735844 -1.927767,2.870213 -1.931003,0.999608 z m 16.746262,-0.567478 c -3.263845,-3.5876437 -3.43641,-4.2091388 -0.772918,-2.7836814 1.876896,1.0044845 4.560232,4.8304454 3.853942,5.4950304 -0.18206,0.17131 -1.56852,-1.048797 -3.081024,-2.711349 z M 96.10206,13.12307 c -1.932375,-2.328369 -0.553559,-2.767153 1.514508,-0.481965 0.998538,1.103372 1.350879,2.006131 0.78298,2.006131 -0.567898,0 -1.601768,-0.685875 -2.297488,-1.524166 z m -7.979944,1.214337 c 0,-0.890892 0.9,-2.101469 2,-2.690171 1.1,-0.588702 2,-0.674279 2,-0.190171 0,0.484108 -0.9,1.694685 -2,2.690171 -1.765252,1.597531 -2,1.619853 -2,0.190171 z m 7,7.587261 c 0,-1.258249 2.858364,-3.752402 3.530297,-3.080469 0.26508,0.265081 -0.420794,1.298951 -1.524166,2.297489 -1.103372,0.998538 -2.006131,1.350879 -2.006131,0.78298 z m -5.380952,-0.801242 c -0.890477,-0.890476 -1.619048,-2.136904 -1.619048,-2.769841 0,-0.632936 0.9875,-0.163293 2.194444,1.043651 1.206945,1.206944 1.935516,2.453373 1.619048,2.769841 -0.316468,0.316469 -1.303968,-0.153174 -2.194444,-1.043651 z m 6.380952,4.164749 c 0,-0.236186 1.35,-1.874608 3,-3.640939 3.091244,-3.309189 3.763234,-3.294634 1.977084,0.04282 -0.9199,1.718851 -4.977084,4.651938 -4.977084,3.598119 z M 87.774778,23.58866 c -1.458964,-1.147621 -2.652662,-2.694308 -2.652662,-3.437081 0,-0.763017 1.324551,-0.02595 3.044872,1.694375 3.614089,3.614089 3.369348,4.701548 -0.39221,1.742706 z m 9.347338,4.756526 c 0,-0.204829 1.8,-2.26461 4.000004,-4.57729 3.91105,-4.111375 5.64929,-3.711647 2.22776,0.5123 -1.56194,1.928244 -6.227764,4.973725 -6.227764,4.06499 z M 86.897257,27.088434 c -2.786542,-1.512201 -4.778073,-4.277594 -4.771403,-6.625457 0.0021,-0.723657 0.871008,0.10658 1.931003,1.844973 1.059996,1.738392 2.858314,3.456217 3.996262,3.817387 1.137948,0.361171 2.068997,1.07635 2.068997,1.589287 0,1.152206 0.08129,1.167991 -3.224859,-0.62619 z m -0.775141,15.558802 c 0,-0.55 1.033403,-1 2.296451,-1 2.062815,0 2.418896,-0.71405 3.5,-7.018559 0.661952,-3.860208 1.259874,-8.472708 1.328716,-10.25 0.111191,-2.870651 0.223388,-2.729016 1.004902,1.268559 0.483854,2.475 1.215029,6.969563 1.624833,9.987917 0.594892,4.381595 1.148283,5.560318 2.745098,5.847064 1.1,0.197532 2.427504,0.765469 2.950004,1.262084 0.56927,0.541073 -2.336249,0.902935 -7.250004,0.902935 -4.8,0 -8.2,-0.414634 -8.2,-1 z" inkscape:connector-curvature="0" transform="translate(-67.874311,17.748057)" />
</svg>
