<?xml version="1.0" encoding="UTF-8" standalone="no"?>
<!-- Created with Inkscape (http://www.inkscape.org/) -->

<svg xmlns:dc="http://purl.org/dc/elements/1.1/" xmlns:cc="http://creativecommons.org/ns#" xmlns:rdf="http://www.w3.org/1999/02/22-rdf-syntax-ns#" xmlns:svg="http://www.w3.org/2000/svg" xmlns="http://www.w3.org/2000/svg" xmlns:sodipodi="http://sodipodi.sourceforge.net/DTD/sodipodi-0.dtd" xmlns:inkscape="http://www.inkscape.org/namespaces/inkscape" id="svg2" version="1.1" inkscape:version="0.48.5 r10040" width="100.40639" height="100.40639" sodipodi:docname="ic_launcher.svg">
        <metadata id="metadata8">
                <rdf:RDF>
                        <cc:Work rdf:about="">
                                <dc:format>image/svg+xml</dc:format>
                                <dc:type rdf:resource="http://purl.org/dc/dcmitype/StillImage" />
                                <dc:title />
                        </cc:Work>
                </rdf:RDF>
        </metadata>
        <defs id="defs6" />
        <sodipodi:namedview pagecolor="#ffffff" bordercolor="#666666" borderopacity="1" objecttolerance="10" gridtolerance="10" guidetolerance="10" inkscape:pageopacity="0" inkscape:pageshadow="2" inkscape:window-width="1598" inkscape:window-height="879" id="namedview4" showgrid="false" inkscape:zoom="6.9915865" inkscape:cx="18.808321" inkscape:cy="50.20319" inkscape:window-x="0" inkscape:window-y="19" inkscape:window-maximized="0" inkscape:current-layer="svg2" fit-margin-top="0" fit-margin-left="0" fit-margin-right="0" fit-margin-bottom="0" />
        <path sodipodi:type="arc" style="fill:#d3cbae;fill-opacity:1;fill-rule:evenodd;stroke:none" id="path3645" sodipodi:cx="97.94545" sodipodi:cy="78.282326" sodipodi:rx="50.203197" sodipodi:ry="50.203197" d="m 148.14865,78.282326 a 50.203197,50.203197 0 1 1 -100.406398,0 50.203197,50.203197 0 1 1 100.406398,0 z" transform="translate(-47.742252,-28.079128)" />
        <path id="path3210" style="fill:#000000" d="m 124.12212,472.64724 c 0,-2.66667 0.33333,-3 3,-3 2.66666,0 3,0.33333 3,3 0,2.35477 0.43957,3 2.04381,3 1.89749,0 2.02277,-0.51903 1.75,-7.25 -0.22886,-5.6472 -0.62543,-7.25 -1.79381,-7.25 -0.89299,0 -1.62805,1.11285 -1.81643,2.75 -0.26314,2.287 -0.79914,2.75 -3.18357,2.75 -2.38443,0 -2.92043,-0.463 -3.18358,-2.75 -0.18838,-1.63715 -0.92343,-2.75 -1.81642,-2.75 -1.16839,0 -1.56496,1.6028 -1.79381,7.25 -0.27278,6.73097 -0.1475,7.25 1.75,7.25 1.60423,0 2.04381,-0.64523 2.04381,-3 z m -6,-2.5 c 0,-7.41271 -0.22386,-8.50532 -1.75,-8.54163 -1.26695,-0.0301 -0.64588,-1.02656 2.25,-3.60985 8.01837,-7.15285 7.69354,-7.10341 14.44891,-2.19916 6.11664,4.44055 7.21352,5.85064 4.55109,5.85064 -1.21569,0 -1.5,1.61111 -1.5,8.5 l 0,8.5 -9,0 -9,0 0,-8.5 z" inkscape:connector-curvature="0" transform="translate(-61.271461,-388.41839)" />
        <path id="path3178" style="fill:#000000" d="m 96.122116,396.88242 c 0,-1.06323 2.148331,-3.23518 3.2,-3.23518 1.552154,0 0.774944,1.94304 -1.2,3 -1.1,0.5887 -2,0.69453 -2,0.23518 z m 6.157894,1.76482 c 0,-1.375 0.22697,-1.9375 0.50439,-1.25 0.27741,0.6875 0.27741,1.8125 0,2.5 -0.27742,0.6875 -0.50439,0.125 -0.50439,-1.25 z m -11.711674,-3.27955 c -0.670021,-1.74605 -3.44622,-3.16426 -3.44622,-1.76049 0,1.11703 3.09075,4.28262 3.642586,3.73079 0.22247,-0.22247 0.134105,-1.10911 -0.196366,-1.9703 z m 3.55378,3.77955 c 0,-0.825 -0.45,-1.5 -1,-1.5 -0.55,0 -1,0.675 -1,1.5 0,0.825 0.45,1.5 1,1.5 0.55,0 1,-0.675 1,-1.5 z m -0.5,4.5 c -0.339919,-0.55 -1.293034,-1 -2.118034,-1 -0.825,0 -1.221885,0.45 -0.881966,1 0.339919,0.55 1.293034,1 2.118034,1 0.825,0 1.221885,-0.45 0.881966,-1 z m -5.74929,2.25 c -3.500815,-3.66965 -4.75071,-7.28911 -4.75071,-13.75712 l 0,-5.37692 4.25,2.42997 c 5.134589,2.93575 7.193816,3.03186 12.038558,0.56187 2.041296,-1.04071 3.711446,-1.54198 3.711446,-1.11394 0,0.85813 -6.177912,4.00614 -7.86199,4.00614 -1.359258,0 -1.046269,10.23189 0.343665,11.23469 0.644189,0.46476 0.55907,0.74031 -0.231679,0.75 -0.6875,0.008 -1.25,0.69031 -1.25,1.51531 0,2.32536 1.55197,1.79418 5.087339,-1.74119 2.277855,-2.27785 2.892845,-2.59031 2.069185,-1.05128 -3.040508,5.68124 -9.282164,6.865 -13.405814,2.54247 z" inkscape:connector-curvature="0" transform="translate(-59.791921,-322.27111)" />
        <path style="fill:#000000" d="m 91.437488,274.57225 c -4.785424,-1.77911 -5.46544,-8.98969 -1.037784,-11.00418 1.971625,-0.89705 2.199054,-1.67946 2.015422,-6.93356 -0.113844,-3.25732 0.1465,-6.14087 0.578542,-6.40788 1.00792,-0.62293 7.128452,4.93331 7.128452,6.47123 0,0.70907 -0.683368,0.88887 -1.750004,0.46043 -0.9625,-0.3866 -2.3125,-0.93289 -3,-1.21397 -0.858925,-0.35117 -1.25,0.58144 -1.25,2.98092 0,2.6213 0.623346,3.90041 2.5,5.13004 1.844277,1.20842 2.5,2.51792 2.5,4.99257 0,4.62668 -3.442551,7.1015 -7.684628,5.5244 z" id="path3156" inkscape:connector-curvature="0" transform="translate(-50.18584,-239.51171)" />
        <path id="path3072" style="fill:#000000" d="m 128.64957,55.397236 c 0.38679,-2.3375 0.9029,-4.5875 1.14692,-5 0.66921,-1.131292 3.32563,-0.899778 3.32563,0.289838 0,1.395029 -3.89076,8.960162 -4.60823,8.960162 -0.31216,0 -0.25111,-1.9125 0.13568,-4.25 z m -6.26494,-0.146577 c -1.17482,-2.418117 -1.86449,-4.668117 -1.5326,-5 1.53957,-1.539569 3.10656,-0.288657 3.71743,2.967591 0.36846,1.964057 0.91669,4.214057 1.21828,5 0.3016,0.785942 0.13988,1.428986 -0.35937,1.428986 -0.49925,0 -1.86893,-1.97846 -3.04374,-4.396577 z m 12.71049,2.346938 c 3.48864,-2.981726 5.07529,-3.305489 5.78371,-1.180203 0.36626,1.09876 -5.79379,4.27334 -8.12884,4.189201 -0.62033,-0.02235 0.43498,-1.376401 2.34513,-3.008998 z m -18.74274,2.294909 c -3.08691,-1.535855 -3.79015,-3.225309 -1.64077,-3.941768 0.53047,-0.176825 2.52735,1.014262 4.4375,2.646859 3.82077,3.26559 2.4447,3.902722 -2.79673,1.294909 z m 19.76974,6.87973 -4.5,-1.625 4.38586,-0.314136 c 4.475,-0.320521 7.33241,1.060462 5.56414,2.689136 -0.55029,0.506842 -2.84339,0.191277 -5.45,-0.75 z m -23.6719,0.28765 c -0.85301,-2.222922 -0.0404,-2.562666 5.31441,-2.221831 l 4.85749,0.309181 -4.79836,1.705778 c -4.21375,1.497956 -4.86843,1.52316 -5.37354,0.206872 z m 11.6719,4.71235 c 0,-1.58125 0.28125,-4.28125 0.625,-6 0.84304,-4.215218 3.98967,-4.297237 4.79554,-0.125 0.3187,1.65 0.84021,4.35 1.15891,6 0.55676,2.882512 0.43928,3 -3,3 -3.27592,0 -3.57945,-0.243797 -3.57945,-2.875 z" inkscape:connector-curvature="0" transform="translate(-45.400872,-17.300862)" />
        <path style="fill:none;stroke:#000000;stroke-width:2.7;stroke-linecap:round;stroke-linejoin:miter;stroke-opacity:1;stroke-miterlimit:4;stroke-dasharray:none" d="M 3.7187554,69.083025 C 19.375463,44.462247 55.581977,58.627287 84.6732,13.87381" id="path2986" inkscape:connector-curvature="0" sodipodi:nodetypes="cc" />
        <path style="fill:none;stroke:#000000;stroke-width:2.7;stroke-linecap:round;stroke-linejoin:miter;stroke-opacity:1;stroke-miterlimit:4;stroke-dasharray:none" d="M 21.454358,55.066177 C 38.828277,48.806964 29.308473,30.511089 24.600997,7.0084149" id="path2992" inkscape:connector-curvature="0" sodipodi:nodetypes="cc" />
</svg>
