<?xml version="1.0" encoding="UTF-8" standalone="no"?>
<svg xmlns:svg="http://www.w3.org/2000/svg" xmlns="http://www.w3.org/2000/svg" version="1.1" x="0" y="0" width="80" height="80" viewBox="0 0 80 80" >
	<path style="fill:#ffffff;fill-opacity:1" d="M 75.000003,40.000001 A 34.999999,35 0 0 1 40.000001,74.999998 34.999999,35 0 0 1 5.0000007,40.000001 34.999999,35 0 0 1 40.000001,5.0000004 34.999999,35 0 0 1 75.000003,40.000001 Z m -30.005469,6.243565 0,-6.249988 -10.000269,0 0,7.500044 -5.000184,0 0,-9.99996 c 0,-1.387356 1.11279,-2.500015 2.500092,-2.500015 l 12.500361,0 0,-6.249988 8.750371,8.750003 -8.750371,8.749904 z M 64.257771,38.230942 41.75714,15.731006 c -0.975388,-0.974675 -2.562982,-0.974675 -3.525578,0 L 15.731028,38.230942 c -0.974704,0.975358 -0.974704,2.563489 0,3.537675 l 22.500534,22.487729 0,0.01221 c 0.975388,0.975261 2.563568,0.975261 3.537785,0 L 64.269978,41.768617 c 0.975388,-0.987662 0.975388,-2.562317 -0.01221,-3.537675 z" />
</svg>
