<?xml version="1.0" encoding="UTF-8" standalone="no"?>
<svg xmlns:svg="http://www.w3.org/2000/svg" xmlns="http://www.w3.org/2000/svg" viewBox="0 0 80 80" height="80" width="80" y="0" x="0" version="1.1">
	<g style="fill:#000000;fill-opacity:1" transform="matrix(0.18783282,0,0,0.18816309,6.3319911e-5,8.0000882)" id="g3">
		<path style="fill:#ee9900;fill-opacity:0.5;stroke:none" id="path5" d="m 215.053,0.001 c -1.218,-0.005 -2.432,0.003 -3.65,0.02 -30.74,-0.037 -61.219,7.333 -89.066,20.118 -4.101,1.053 -7.157,4.368 -11.12,5.765 C 63.18,51.659 26.239,96.786 9.85,148.783 c -16.6,51.791 -11.997,109.96 12.13,158.551 5.671,11.53 12.375,22.474 20.094,32.751 8.266,-0.141 16.538,0.277 24.797,-0.183 1.709,-2.813 5.05,-3.964 7.246,-6.343 L 93.204,318.123 82.265,304.63 c -9.369,7.574 -18.68,15.235 -28.169,22.65 -13.878,-19.358 -24.3,-41.206 -30.443,-64.237 10.391,-2.439 20.781,-4.881 31.174,-7.321 l -3.972,-16.907 c -10.31,2.377 -20.541,5.052 -30.991,6.731 -3.627,-22.346 -3.518,-45.384 0.569,-67.638 10.716,2.185 21.427,4.398 32.14,6.602 l 3.489,-16.939 c -10.587,-2.299 -21.207,-4.43 -31.828,-6.56 6.288,-22.536 16.324,-43.936 30.143,-62.84 7.365,5.191 14.748,10.355 22.123,15.532 L 86.495,99.47 C 79.407,94.505 72.168,89.743 65.422,84.324 80.63,67.011 98.866,52.38 119.085,41.203 c 3.65,7.977 7.288,15.959 10.959,23.926 l 15.748,-7.212 c -3.717,-8.13 -7.418,-16.268 -11.152,-24.389 21.884,-9.655 45.605,-15.057 69.517,-16.102 0.045,8.524 0.114,17.046 0.171,25.57 l 17.348,-0.141 c -0.059,-8.468 -0.128,-16.939 -0.173,-25.408 23.556,1.05 46.879,6.3 68.574,15.49 -3.816,8.321 -7.606,16.654 -11.412,24.98 l 15.748,7.212 c 3.767,-8.227 7.533,-16.456 11.315,-24.678 20.54,11.14 39.096,25.978 54.456,43.507 -7.409,5.173 -14.81,10.357 -22.211,15.543 l 9.973,14.201 c 7.699,-5.401 15.416,-10.776 23.101,-16.197 12.957,17.754 22.979,37.636 29.445,58.653 -12.03,2.541 -28.204,4.98 -40.245,7.473 2.858,21.219 3.828,40.193 1.891,58.321 l 45.708,6.484 -1.427,11.292 -45.891,-6.504 c -2.09,11.651 -5.509,23.061 -10.552,34.619 6.76,3.737 13.539,7.442 20.342,11.1 6.777,3.257 13.97,8.402 15.436,16.263 2.232,10.899 -9.183,21.825 -19.999,18.979 -10.327,-4.777 -20.562,-9.747 -30.744,-14.826 -7.645,14.178 -16.296,27.821 -25.861,40.771 24.836,-0.112 49.673,-0.002 74.51,-0.043 21.185,-33.623 36.585,-71.442 41.328,-111.103 3.911,-38.804 -4.822,-78.296 -22.286,-112.918 C 384.69,80.622 356.6,50.662 322.536,30.318 290.261,10.932 252.806,0.132 215.053,0.001 l 0,0 z m -3.198,186.825 c -0.339,-0.003 -0.681,0.002 -1.02,0.012 -15.478,-0.115 -28.707,16.154 -24.916,31.324 2.291,11.27 12.741,20.701 24.401,20.813 11.302,0.508 22.727,-6.911 25.944,-17.937 3.494,-10.617 -0.483,-23.532 -10.079,-29.606 -4.189,-2.883 -9.242,-4.541 -14.33,-4.606 l 0,0 z m 0,0"/>
		<path style="fill:#ee9900;fill-opacity:0.5;stroke:none" id="path7" d="m 216.237,202.067 c -9.505,-0.532 -17.122,11.127 -12.544,19.571 3.609,6.852 11.868,5.022 18.016,8.814 48.438,24.312 96.367,49.775 145.084,73.55 8.658,4.839 14.476,-4.943 5.99,-10.216 -2.526,-1.672 -7.474,-5.716 -9.994,-7.156 -49.096,-27.041 -95.605,-57.942 -144.998,-84.451 -0.514,-0.083 -1.035,-0.102 -1.554,-0.112 l 0,0 0,0 z m 0,0"/>
	</g>
</svg>
