<?xml version="1.0" encoding="UTF-8" standalone="no"?>
<svg xmlns:svg="http://www.w3.org/2000/svg" xmlns="http://www.w3.org/2000/svg" version="1.1" x="0" y="0" width="80" height="80" viewBox="0 0 80 80" >
        <path style="fill:#ffffff;fill-opacity:1;stroke:none;stroke-width:0" d="M 21.373392,61.531537 C 20.299865,56.308351 21.936701,50.6107 18.991742,45.85238 16.70387,43.594062 11.671968,41.602383 10.965574,40.401554 8.667791,37.167049 10.009616,31.391001 5.1461844,30.291479 3.1936617,29.754827 -0.0925406,33.997894 0.8958546,29.636216 -0.7180582,27.136893 0.3418468,23.475805 4.0667003,24.455768 c 1.6801104,0.403169 9.1476657,1.662629 5.651913,-1.509164 -1.8590699,-3.251899 6.8641207,-0.394779 4.4103997,2.35884 -5.7640635,1.041736 4.953666,1.725282 1.620325,-1.84808 1.474578,-3.794688 -0.0383,2.11736 2.38435,1.859658 1.89537,1.521138 -4.372182,5.098605 -0.176903,7.307161 3.181578,2.117719 1.619051,-6.074043 4.62378,-2.191247 5.442326,2.842928 -3.392034,6.026351 -2.736129,9.508679 -1.041612,1.63045 -4.167008,-1.595781 -4.290998,1.799224 0.472839,2.000768 2.462475,0.232447 2.754341,2.648039 2.954277,0.917288 6.525482,0.117738 8.536178,2.822957 4.916834,2.605368 -1.13642,7.467792 -3.396539,9.810809 -1.186163,0.704927 -1.225803,5.517455 -2.074026,4.508893 z M 75.3257,58.966685 c 0.516909,-2.004365 2.916431,-3.145251 1.120464,-0.458381 -0.206726,0.351405 -0.686654,0.804099 -1.120464,0.458381 z M 70.238362,57.75568 c 0.925603,-1.65407 0.826133,1.577271 0,0 z m -1.692686,-1.995888 c -3.015076,0.04474 -7.9683,-2.176116 -3.177981,-4.727506 3.571023,-3.06266 10.047439,3.392799 4.896435,5.585411 -0.678059,0.09531 -1.35607,-0.291249 -1.718454,-0.857905 z M 40.811826,53.31353 c 0.757586,-4.546716 -2.910472,-8.430995 -6.654001,-8.771104 -0.835967,-4.37347 2.235547,-9.304134 5.126797,-12.166286 3.235492,0.91116 4.871839,-3.881813 2.808933,-4.097534 0.323678,4.115894 -4.657941,2.608208 -2.746626,-0.593622 0.651435,-4.09107 7.176949,-3.711214 6.926376,-0.611738 1.961915,-1.224509 5.471071,-2.571517 6.498421,-2.599718 0.677703,-3.289638 5.49201,-2.907868 6.903378,-5.776095 1.679155,-0.941431 4.580927,1.065487 2.514977,2.628058 4.832511,1.477135 9.958857,1.752213 14.737449,3.384262 2.728439,0.156199 4.293195,2.944809 0.731102,3.444693 -1.422095,0.511426 -4.270088,5.704539 -4.392456,3.908427 2.994231,-4.764727 -5.346587,-1.893224 -4.357789,1.627456 0.0161,2.514112 -1.654902,4.579834 -3.909516,4.48468 0.178702,3.685283 -3.236252,5.362197 -4.670256,7.643758 -0.377621,2.953938 8.14064,4.159869 2.922527,3.634505 -2.185934,-0.54712 -5.44113,-2.980331 -3.171322,-4.598171 -0.742212,-2.815697 -4.797987,-3.033181 -4.729133,0.101134 -0.691858,-2.104742 -5.716334,-5.612587 -6.073084,-3.657542 2.459249,1.334375 -2.009422,4.203503 -2.177266,6.286006 -0.915101,2.474738 -2.294879,10.175235 -5.894097,7.008059 l -0.172136,-0.438737 z m 1.255033,-14.056333 c 1.488811,1.52478 4.431128,-1.310638 1.573066,-1.608767 2.933772,0.379861 2.902891,-3.837278 0.585569,-1.247058 -1.109801,1.567045 -3.943416,-0.804921 -3.317825,1.490389 -1.033764,-2.179454 -4.835343,-0.786725 -2.266599,0.693301 1.552661,-1.749278 1.834652,2.230531 3.425789,0.672135 z m 5.379219,12.945412 c 1.439389,-5.540358 1.446967,3.038631 0,0 z m 23.392758,-2.763004 c -2.22844,-0.403331 -4.648067,-2.20746 -1.013684,-1.677441 1.040203,-0.356698 3.683103,2.178068 1.013684,1.677441 z m -8.026129,-1.387091 c -1.247945,-3.568999 4.09893,-0.287676 0,0 z m 2.319969,-3.127566 c -1.935691,-4.184149 2.567416,2.125288 0,0 z m 1.837907,-5.211838 c 1.179737,-1.006505 4.492313,-6.80062 3.039698,-2.177959 -0.75945,1.014644 -1.820629,1.823417 -3.039698,2.177959 z M 36.423845,33.237652 c -3.08663,-0.34696 1.629255,-4.612195 0.998207,-0.434129 0.276239,0.978873 -0.641815,1.500882 -0.998207,0.434129 z M 21.634073,28.539217 c -3.657191,-2.366472 4.157645,0.239765 0,0 z m -3.520016,-0.233348 c 0.844244,-1.697472 1.550963,1.22979 0,0 z m 14.212149,-0.440738 c 0.257637,-2.596022 2.495845,1.97254 0,0 z M 23.10693,27.207748 c -0.718182,-2.232509 -6.78699,-2.288602 -4.496157,-5.096574 1.41218,1.661208 4.928848,2.411447 4.496157,5.096574 z m 26.18413,-3.661741 c -1.902777,-2.56346 5.387778,-6.272951 1.436664,-1.986502 -0.237562,0.775264 -0.459892,1.893667 -1.436664,1.986502 z M 14.809834,23.166358 c -1.780775,-2.506175 2.165022,-0.935768 0,0 z m -3.240286,-2.426452 c -2.4695151,-0.79574 -0.324551,-3.130581 0.951149,-0.95339 0.822873,-3.286629 1.397938,3.106421 -0.951149,0.95339 z m 4.326518,0.05008 c -0.426203,-1.722194 0.962171,0.264463 0,0 z m 0.877578,-0.0996 c -2.623495,-3.530342 5.240188,0.776762 0.717399,0.299929 z M 14.396568,20.00162 c -0.451858,-2.57914 1.996175,1.394178 0,0 z m 3.179,-1.18656 c 1.518575,-2.795547 2.923479,2.477646 0,0 z" />
        <path style="fill:none;fill-opacity:1;stroke:#ffffff;stroke-width:2.95841289;stroke-miterlimit:4;stroke-dasharray:none;stroke-opacity:1" d="m 1.8154953,1.4855837 c 25.4563327,0 50.9126667,0 76.3689987,0 0,25.6762773 0,51.3525573 0,77.0288353 -25.456332,0 -50.912666,0 -76.3689987,0 0,-25.676278 0,-51.352558 0,-77.0288353 z" />
</svg>
