<?xml version="1.0" encoding="UTF-8" standalone="no"?>
<svg xmlns:svg="http://www.w3.org/2000/svg" xmlns="http://www.w3.org/2000/svg" version="1.1" x="0" y="0" width="80" height="80" viewBox="0 0 80 80" >
	<path transform="matrix(0.34637331,0,0,0.3463733,25.859761,27.971031)" style="fill:#ffffff;fill-opacity:1" d="M 54.350775,15.372038 A 14.008532,14.073252 0 0 1 40.342237,29.445291 14.008532,14.073252 0 0 1 26.333706,15.372038 14.008532,14.073252 0 0 1 40.342237,1.2987862 14.008532,14.073252 0 0 1 54.350775,15.372038 Z M 40.143103,105 C 42.042987,95.081955 45.316254,85.453357 49.689086,76.364683 56.471287,61.510808 67.028597,48.851461 74.408352,34.348734 81.964761,22.070082 81.902761,5.5783916 73.977319,-6.4975641 63.588823,-23.767251 39.546732,-29.908517 21.860891,-20.808234 6.3655798,-13.383605 -2.8333532,5.020465 0.78581536,21.917643 3.0215181,31.828895 9.0941081,40.281765 14.305577,48.813586 25.916208,65.915511 36.222194,84.464164 40.143103,105 Z M 141.87075,34.728341 A 101.04704,101.04705 0 0 1 40.8237,135.77538 101.04704,101.04705 0 0 1 -60.223348,34.728341 101.04704,101.04705 0 0 1 40.8237,-66.31871 101.04704,101.04705 0 0 1 141.87075,34.728341 Z" />
</svg>
