<?xml version="1.0" encoding="UTF-8" standalone="no"?>
<svg xmlns:dc="http://purl.org/dc/elements/1.1/" xmlns:cc="http://creativecommons.org/ns#" xmlns:rdf="http://www.w3.org/1999/02/22-rdf-syntax-ns#" xmlns:svg="http://www.w3.org/2000/svg" xmlns="http://www.w3.org/2000/svg" version="1.1" width="48" height="48" viewBox="0 0 48 48" >
	<!-- copyright M. Dietrich <mdt@pyneo.org> -->
	<g transform="matrix(0.49716252,0,0,0.49716252,1.1858795,-1.3925143)">
		<path transform="matrix(1.6591917,0,0,1.9591923,-145.79592,-52.715565)" d="m 128.64957,55.397236 c 0.38679,-2.3375 0.9029,-4.5875 1.14692,-5 0.66921,-1.131292 3.32563,-0.899778 3.32563,0.289838 0,1.395029 -3.89076,8.960162 -4.60823,8.960162 -0.31216,0 -0.25111,-1.9125 0.13568,-4.25 z m -6.26494,-0.146577 c -1.17482,-2.418117 -1.86449,-4.668117 -1.5326,-5 1.53957,-1.539569 3.10656,-0.288657 3.71743,2.967591 0.36846,1.964057 0.91669,4.214057 1.21828,5 0.3016,0.785942 0.13988,1.428986 -0.35937,1.428986 -0.49925,0 -1.86893,-1.97846 -3.04374,-4.396577 z m 12.71049,2.346938 c 3.48864,-2.981726 5.07529,-3.305489 5.78371,-1.180203 0.36626,1.09876 -5.79379,4.27334 -8.12884,4.189201 -0.62033,-0.02235 0.43498,-1.376401 2.34513,-3.008998 z m -18.74274,2.294909 c -3.08691,-1.535855 -3.79015,-3.225309 -1.64077,-3.941768 0.53047,-0.176825 2.52735,1.014262 4.4375,2.646859 3.82077,3.26559 2.4447,3.902722 -2.79673,1.294909 z m 19.76974,6.87973 -4.5,-1.625 4.38586,-0.314136 c 4.475,-0.320521 7.33241,1.060462 5.56414,2.689136 -0.55029,0.506842 -2.84339,0.191277 -5.45,-0.75 z m -23.6719,0.28765 c -0.85301,-2.222922 -0.0404,-2.562666 5.31441,-2.221831 l 4.85749,0.309181 -4.79836,1.705778 c -4.21375,1.497956 -4.86843,1.52316 -5.37354,0.206872 z m 11.6719,4.71235 c 0,-1.58125 0.28125,-4.28125 0.625,-6 0.84304,-4.215218 3.98967,-4.297237 4.79554,-0.125 0.3187,1.65 0.84021,4.35 1.15891,6 0.55676,2.882512 0.43928,3 -3,3 -3.27592,0 -3.57945,-0.243797 -3.57945,-2.875 z" style="fill:#000000;fill-opacity:1" />
		<path d="M 3.7187554,69.083025 C 19.375463,44.462247 55.581977,58.627287 84.6732,13.87381" style="fill:none;stroke:#000000;stroke-width:2.70000005;stroke-linecap:round;stroke-linejoin:miter;stroke-miterlimit:4;stroke-dasharray:none;stroke-opacity:1" />
		<path d="M 21.454358,55.066177 C 38.828277,48.806964 29.308473,30.511089 24.600997,7.0084149" style="fill:none;stroke:#000000;stroke-width:2.70000005;stroke-linecap:round;stroke-linejoin:miter;stroke-miterlimit:4;stroke-dasharray:none;stroke-opacity:1" />
	</g>
</svg>
