<?xml version="1.0" encoding="UTF-8" standalone="no"?>
<svg xmlns:dc="http://purl.org/dc/elements/1.1/" xmlns:cc="http://creativecommons.org/ns#" xmlns:rdf="http://www.w3.org/1999/02/22-rdf-syntax-ns#" xmlns:svg="http://www.w3.org/2000/svg" xmlns="http://www.w3.org/2000/svg" width="46" height="46" viewBox="0 0 46 46" version="1.1" >
	<!-- copyright M. Dietrich <mdt@pyneo.org> -->
	<rect style="fill:#60ff00;fill-opacity:1;fill-rule:evenodd;stroke:none;stroke-width:1;stroke-linecap:round;stroke-miterlimit:4;stroke-dasharray:none;stroke-opacity:1" width="51.847" height="40.347458" x="-109.54237" y="-21.440678" transform="matrix(0.88722587,0,0,1.1400966,97.188825,24.444444)" />
	<path style="fill:none;fill-rule:evenodd;stroke:#000000;stroke-width:1px;stroke-linecap:butt;stroke-linejoin:miter;stroke-opacity:1" d="M 0,23.389831 15.20339,13.254237 33.720339,30.211864 46.779661,21.440678" />
	<path style="fill:#000000" d="m 124.12212,472.64724 c 0,-2.66667 0.33333,-3 3,-3 2.66666,0 3,0.33333 3,3 0,2.35477 0.43957,3 2.04381,3 1.89749,0 2.02277,-0.51903 1.75,-7.25 -0.22886,-5.6472 -0.62543,-7.25 -1.79381,-7.25 -0.89299,0 -1.62805,1.11285 -1.81643,2.75 -0.26314,2.287 -0.79914,2.75 -3.18357,2.75 -2.38443,0 -2.92043,-0.463 -3.18358,-2.75 -0.18838,-1.63715 -0.92343,-2.75 -1.81642,-2.75 -1.16839,0 -1.56496,1.6028 -1.79381,7.25 -0.27278,6.73097 -0.1475,7.25 1.75,7.25 1.60423,0 2.04381,-0.64523 2.04381,-3 z m -6,-2.5 c 0,-7.41271 -0.22386,-8.50532 -1.75,-8.54163 -1.26695,-0.0301 -0.64588,-1.02656 2.25,-3.60985 8.01837,-7.15285 7.69354,-7.10341 14.44891,-2.19916 6.11664,4.44055 7.21352,5.85064 4.55109,5.85064 -1.21569,0 -1.5,1.61111 -1.5,8.5 l 0,8.5 -9,0 -9,0 0,-8.5 z" transform="matrix(0.4780572,0,0,0.4780572,-44.905469,-189.78648)" />
	<path style="fill:#000000" d="m 91.437488,274.57225 c -4.785424,-1.77911 -5.46544,-8.98969 -1.037784,-11.00418 1.971625,-0.89705 2.199054,-1.67946 2.015422,-6.93356 -0.113844,-3.25732 0.1465,-6.14087 0.578542,-6.40788 1.00792,-0.62293 7.128452,4.93331 7.128452,6.47123 0,0.70907 -0.683368,0.88887 -1.750004,0.46043 -0.9625,-0.3866 -2.3125,-0.93289 -3,-1.21397 -0.858925,-0.35117 -1.25,0.58144 -1.25,2.98092 0,2.6213 0.623346,3.90041 2.5,5.13004 1.844277,1.20842 2.5,2.51792 2.5,4.99257 0,4.62668 -3.442551,7.1015 -7.684628,5.5244 z" transform="matrix(0.4780572,0,0,0.4780572,-9.3566443,-111.89993)" />
</svg>
