<?xml version="1.0" encoding="UTF-8" standalone="no"?>
<svg xmlns:dc="http://purl.org/dc/elements/1.1/" xmlns:cc="http://creativecommons.org/ns#" xmlns:rdf="http://www.w3.org/1999/02/22-rdf-syntax-ns#" xmlns:svg="http://www.w3.org/2000/svg" xmlns="http://www.w3.org/2000/svg" version="1.2" viewBox="0 0 80 80" width="80" height="80" >
	<!-- copyright M. Dietrich <mdt@de.emdete.org> -->
	<path style="fill:#ee9900;fill-opacity:0.5;stroke:none" d="M 60,10.449219 A 50.608057,49.551278 0 0 0 9.3925781,60 50.608057,49.551278 0 0 0 60,109.55078 50.608057,49.551278 0 0 0 110.60742,60 50.608057,49.551278 0 0 0 60,10.449219 Z M 60,26 c 3.387,-0.001 6.133814,2.744813 6.132812,6.132812 l -0.002,21.712891 21.798829,0 c 3.398999,0 6.152343,2.756297 6.152343,6.154297 0,3.399 -2.753343,6.154297 -6.152343,6.154297 l -21.796876,0 -0.002,21.712891 C 66.131859,91.255186 63.386,94 60,94 56.612,94 53.868187,91.254188 53.867188,87.867188 l 0,-21.712891 -21.820313,0 c -3.399,0 -6.15625,-2.755297 -6.15625,-6.154297 0.001,-3.399 2.75725,-6.154297 6.15625,-6.154297 l 21.820313,0 0,-21.712891 C 53.865186,28.747813 56.612,26.001 60,26 Z" transform="matrix(0.69159818,0,0,0.70634609,-1.4958899,-2.380765)" />
</svg>
