<?xml version="1.0" encoding="UTF-8" standalone="no"?>
<svg xmlns:dc="http://purl.org/dc/elements/1.1/" xmlns:cc="http://creativecommons.org/ns#" xmlns:rdf="http://www.w3.org/1999/02/22-rdf-syntax-ns#" xmlns:svg="http://www.w3.org/2000/svg" xmlns="http://www.w3.org/2000/svg" version="1.2" viewBox="0 0 32 32" width="32" height="32" id="svg2" >
	<g transform="matrix(0.04512611,0,0,0.04513089,15.500313,14.307012)" id="g4">
		<g transform="matrix(0.0750475,0,0,0.0750475,-485.25351,-210.66921)" id="g6">
			<polygon points="5669,3779 1889,3779 1889,2834 1889,2834 1889,2834 5669,2834 6141,3307 " style="fill:#ffffff;fill-opacity:0.5" id="polygon8" />
			<polygon points="7086,4251 7086,8031 6141,8031 6141,8031 6141,8031 6141,4251 6614,3779 " style="fill:#ffffff;fill-opacity:0.5" id="polygon10" />
			<polygon points="7559,2834 11338,2834 11338,3779 11338,3779 11338,3779 7559,3779 7086,3307 " style="fill:#ffffff;fill-opacity:0.5" id="polygon12" />
			<polygon points="6141,2362 6141,-1417 7086,-1417 7086,-1417 7086,-1417 7086,2362 6614,2834 " style="fill:#ffffff;fill-opacity:0.5" id="polygon14" />
		</g>
	</g>
</svg>
