<?xml version="1.0" encoding="UTF-8" standalone="no"?>
<svg xmlns:dc="http://purl.org/dc/elements/1.1/" xmlns:cc="http://creativecommons.org/ns#" xmlns:rdf="http://www.w3.org/1999/02/22-rdf-syntax-ns#" xmlns:svg="http://www.w3.org/2000/svg" xmlns="http://www.w3.org/2000/svg" width="48" height="48" viewBox="0 0 48 48" version="1.1" id="svg2" >
	<!-- copyright M. Dietrich <mdt@pyneo.org> -->
	<g transform="matrix(0.0088349,0,0,0.00891199,-27.123134,-11.781657)" id="g4">
		<rect x="5669" y="6236" width="236" height="472" style="fill:#ee9900" id="rect6" />
		<rect x="3070" y="3874" width="472" height="236" style="fill:#ee9900" id="rect8" />
		<rect x="5669" y="1322" width="236" height="472" style="fill:#ee9900" id="rect10" />
		<rect x="8031" y="3874" width="472" height="236" style="fill:#ee9900" id="rect12" />
		<path d="M 7794,4015 A 2008,2008 0 0 0 5786,2007 2008,2008 0 0 0 3778,4015 2008,2008 0 0 0 5786,6023 2008,2008 0 0 0 7794,4015 Z m 236,0 A 2244,2244 0 0 1 5786,6259 2244,2244 0 0 1 3542,4015 2244,2244 0 0 1 5786,1771 2244,2244 0 0 1 8030,4015 Z" style="fill:#ee9900" id="path14" />
		<circle cx="5786" cy="4015" r="1063" style="fill:#ee9900" id="circle16" />
	</g>
</svg>
