<?xml version="1.0" encoding="UTF-8" standalone="no"?>
<svg xmlns:dc="http://purl.org/dc/elements/1.1/" xmlns:cc="http://creativecommons.org/ns#" xmlns:rdf="http://www.w3.org/1999/02/22-rdf-syntax-ns#" xmlns:svg="http://www.w3.org/2000/svg" xmlns="http://www.w3.org/2000/svg" width="80" height="80" viewBox="0 0 80 80" version="1.1" >
	<!-- copyright M. Dietrich <mdt@pyneo.org> -->
	<g transform="matrix(0.07422681,0,0,0.07422679,-314.64745,-208.68449)">
		<path d="M 40.000001,5 A 35.00044,35.000351 0 0 0 5,40 35.00044,35.000351 0 0 0 40.000001,75 35.00044,35.000351 0 0 0 75,40 35.00044,35.000351 0 0 0 40.000001,5 Z" style="fill:#ee9900;fill-opacity:0.5;stroke:none" transform="matrix(13.472222,0,0,13.472224,4239,2811.4444)" />
		<g transform="matrix(0.28206806,0,0,0.2493575,3445.5408,2172.3686)" style="fill:none;stroke-width:0.025in">
				<polygon style="fill:#ffffff;stroke:#000000;stroke-width:8;stroke-linecap:butt;stroke-linejoin:miter" points="4251,4724 5196,4724 4724,6614 4251,4724 4251,4724 " />
				<polygon style="fill:#ff0000;stroke:#000000;stroke-width:8;stroke-linecap:butt;stroke-linejoin:miter" points="4251,4724 4724,2834 5196,4724 4251,4724 4251,4724 " />
		</g>
	</g>
</svg>
