<?xml version="1.0" encoding="UTF-8" standalone="no"?>
<svg xmlns:dc="http://purl.org/dc/elements/1.1/" xmlns:cc="http://creativecommons.org/ns#" xmlns:rdf="http://www.w3.org/1999/02/22-rdf-syntax-ns#" xmlns:svg="http://www.w3.org/2000/svg" xmlns="http://www.w3.org/2000/svg" xmlns:sodipodi="http://sodipodi.sourceforge.net/DTD/sodipodi-0.dtd" xmlns:inkscape="http://www.inkscape.org/namespaces/inkscape" version="1.2" viewBox="0 0 120 120" width="120" height="120" id="zoom_in" inkscape:version="0.91 r13725" sodipodi:docname="zoom_in.svg">
	<path style="fill:#ee9900;stroke:none;fill-opacity:0.5" d="M 60 10.449219 A 50.608057 49.551278 0 0 0 9.3925781 60 A 50.608057 49.551278 0 0 0 60 109.55078 A 50.608057 49.551278 0 0 0 110.60742 60 A 50.608057 49.551278 0 0 0 60 10.449219 z M 60 26 C 63.387 25.999 66.133814 28.744813 66.132812 32.132812 L 66.130859 53.845703 L 87.929688 53.845703 C 91.328687 53.845703 94.082031 56.602 94.082031 60 C 94.082031 63.399 91.328688 66.154297 87.929688 66.154297 L 66.132812 66.154297 L 66.130859 87.867188 C 66.131859 91.255186 63.386 94 60 94 C 56.612 94 53.868187 91.254188 53.867188 87.867188 L 53.867188 66.154297 L 32.046875 66.154297 C 28.647875 66.154297 25.890625 63.399 25.890625 60 C 25.891625 56.601 28.647875 53.845703 32.046875 53.845703 L 53.867188 53.845703 L 53.867188 32.132812 C 53.865186 28.747813 56.612 26.001 60 26 z " />
</svg>
