<?xml version="1.0" encoding="UTF-8" standalone="no"?>
<svg xmlns:dc="http://purl.org/dc/elements/1.1/" xmlns:cc="http://creativecommons.org/ns#" xmlns:rdf="http://www.w3.org/1999/02/22-rdf-syntax-ns#" xmlns:svg="http://www.w3.org/2000/svg" xmlns="http://www.w3.org/2000/svg" xmlns:sodipodi="http://sodipodi.sourceforge.net/DTD/sodipodi-0.dtd" xmlns:inkscape="http://www.inkscape.org/namespaces/inkscape" version="1.2" viewBox="0 0 120 120" width="120" height="120" id="zoom_out" inkscape:version="0.91 r13725" sodipodi:docname="zoom_out.svg">
	<path style="stroke:none;fill:#ee9900;fill-opacity:0.5" d="M 60 10.449219 A 50.608057 49.551278 0 0 0 9.3925781 60 A 50.608057 49.551278 0 0 0 60 109.55078 A 50.608057 49.551278 0 0 0 110.60742 60 A 50.608057 49.551278 0 0 0 60 10.449219 z M 32.046875 53.845703 L 87.929688 53.845703 C 91.328688 53.845703 94.082031 56.602 94.082031 60 C 94.082031 63.399 91.328688 66.154297 87.929688 66.154297 L 32.046875 66.154297 C 28.647875 66.154297 25.890625 63.399 25.890625 60 C 25.891625 56.601 28.647875 53.845703 32.046875 53.845703 z " />
</svg>
